<?xml version="1.0" encoding="utf-8"?>
<svg version="1.1" xmlns="http://www.w3.org/2000/svg" xmlns:xlink="http://www.w3.org/1999/xlink" x="0px" y="0px"
	 viewBox="0 0 135.8 19.9" enable-background="new 0 0 135.8 19.9" xml:space="preserve">
<g transform="translate(-608 -568.697)">
	<g>
		<g transform="translate(608 568.697)">
			<g transform="translate(11.768 7.242)">
				<path fill="#4285F4" d="M-10.4,10h3.2V2.3l-4.5-3.4v9.7C-11.8,9.3-11.2,10-10.4,10z"/>
				<path fill="#34A853" d="M3.6,10h3.2c0.7,0,1.4-0.6,1.4-1.4c0,0,0,0,0,0v-9.7L3.6,2.3V10z"/>
				<path fill="#FBBC04" d="M3.6-3.6v5.9l4.5-3.4v-1.8c0-1.1-0.9-2-2-2C5.7-5,5.2-4.8,4.9-4.6L3.6-3.6z"/>
				<path fill-rule="evenodd" clip-rule="evenodd" fill="#EA4335" d="M-7.2,2.3v-5.9l5.4,4.1l5.4-4.1v5.9l-5.4,4.1L-7.2,2.3z"/>
				<path fill="#C5221F" d="M-11.8-2.9v1.8l4.5,3.4v-5.9l-1.3-1c-0.9-0.7-2.2-0.5-2.9,0.4C-11.6-3.8-11.8-3.4-11.8-2.9z"/>
				<path fill="#FFFFFF" d="M31.7-1.8h-9.1v9.1h9.1V-1.8z"/>
				<path fill="#4285F4" d="M24.5,5.2c-0.3-0.2-0.6-0.6-0.7-1l0.8-0.3c0.1,0.2,0.2,0.5,0.4,0.6c0.2,0.2,0.4,0.2,0.6,0.2
					c0.2,0,0.5-0.1,0.7-0.2c0.2-0.1,0.3-0.4,0.3-0.6c0-0.2-0.1-0.5-0.3-0.6c-0.2-0.2-0.5-0.2-0.7-0.2h-0.5V2.3h0.4
					c0.2,0,0.5-0.1,0.6-0.2c0.2-0.1,0.3-0.3,0.3-0.6c0-0.2-0.1-0.4-0.2-0.5c-0.2-0.1-0.4-0.2-0.6-0.2c-0.2,0-0.4,0.1-0.5,0.2
					c-0.1,0.1-0.2,0.3-0.3,0.5l-0.8-0.3c0.1-0.3,0.3-0.6,0.6-0.8c0.3-0.2,0.7-0.4,1.1-0.3c0.3,0,0.6,0.1,0.9,0.2
					c0.2,0.1,0.5,0.3,0.6,0.5c0.1,0.2,0.2,0.5,0.2,0.7c0,0.2-0.1,0.5-0.2,0.7c-0.1,0.2-0.3,0.3-0.5,0.4v0c0.3,0.1,0.5,0.3,0.6,0.5
					c0.2,0.2,0.3,0.5,0.2,0.8c0,0.3-0.1,0.6-0.2,0.8C27,5,26.8,5.2,26.5,5.3c-0.3,0.1-0.6,0.2-0.9,0.2C25.2,5.6,24.8,5.4,24.5,5.2z"
					/>
				<path fill="#4285F4" d="M29.3,1.3l-0.9,0.6L28,1.3l1.5-1.1h0.6v5.3h-0.8V1.3L29.3,1.3z"/>
				<path fill="#34A853" d="M31.7,7.2h-9.1v4.1h9.1V7.2z"/>
				<path fill="#4285F4" d="M31.7-5.9H19.9c-0.7,0-1.4,0.6-1.4,1.4V7.2h4.1v-9.1h9.1V-5.9z"/>
				<path fill="#188038" d="M18.6,7.2V10c0,0.8,0.6,1.4,1.4,1.4h2.7V7.2H18.6z"/>
				<path fill="#FBBC04" d="M35.8-1.8h-4.1v9.1h4.1V-1.8z"/>
				<path fill="#1967D2" d="M35.8-1.8v-2.7c0-0.7-0.6-1.4-1.4-1.4c0,0,0,0,0,0h-2.7v4.1H35.8z"/>
				<path fill="#EA4335" d="M31.7,11.3l4.1-4.1h-4.1V11.3z"/>
				<path fill="#0066DA" d="M47.7,8.8l0.9,1.5c0.2,0.3,0.4,0.6,0.7,0.7l3.1-5.4h-6.2c0,0.4,0.1,0.7,0.3,1L47.7,8.8z"/>
				<path fill="#00AC47" d="M56.1-0.7L53-6.1c-0.3,0.2-0.6,0.4-0.7,0.7l-5.7,10c-0.2,0.3-0.3,0.7-0.3,1h6.2L56.1-0.7z"/>
				<path fill="#00832D" d="M56.1-0.7l3.1-5.4c-0.3-0.2-0.7-0.3-1-0.3H54c-0.4,0-0.7,0.1-1,0.3L56.1-0.7z"/>
				<path fill="#2684FC" d="M59.8,5.7h-7.3L49.4,11c0.3,0.2,0.7,0.3,1,0.3h11.5c0.4,0,0.7-0.1,1-0.3L59.8,5.7z"/>
				<path fill="#EA4335" d="M62.9,11c0.3-0.2,0.6-0.4,0.7-0.7L64,9.7l1.7-3C65.9,6.4,66,6,66,5.7h-6.2L62.9,11z"/>
				<path fill="#FFBA00" d="M62.9-0.3l-2.9-5c-0.2-0.3-0.4-0.6-0.7-0.7l-3.1,5.4l3.7,6.3H66c0-0.4-0.1-0.7-0.3-1L62.9-0.3z"/>
				<path fill="#00832D" d="M82.8,7.7h-5v3.6c0,0.8,0.6,1.4,1.4,1.4l0,0h3.6V7.7z"/>
				<path fill="#FFBA00" d="M82.8-7.2h-3.6c-0.8,0-1.4,0.6-1.4,1.4l0,0V7.7h5v-10h4.5v-5H82.8z"/>
				<path fill="#0066DA" d="M92.3,7.7h-5v5H91c0.7,0,1.4-0.6,1.4-1.4c0,0,0,0,0,0V7.7z"/>
				<path fill="#00AC47" d="M87.4,7.7h-4.5v5h4.5V7.7z"/>
				<path fill="#2684FC" d="M87.4-2.3v10h5v-10H87.4z"/>
				<path fill="#EA4335" d="M87.4-7.2v5h5L87.4-7.2z"/>
				<path fill="#FFFFFF" d="M87.4-2.3h-4.5v10h4.5V-2.3z"/>
				<path fill="#00832D" d="M115.4,2.7l1.9,2.2l2.6,1.7l0.5-3.9L119.9-1l-2.6,1.5L115.4,2.7z"/>
				<path fill="#0066DA" d="M104.2,6.2v3.3c0,0.8,0.6,1.4,1.4,1.4l0,0h3.3l0.7-2.5l-0.7-2.2l-2.3-0.7L104.2,6.2z"/>
				<path fill="#E94235" d="M108.9-5.4l-4.6,4.6l2.4,0.7l2.3-0.7l0.7-2.1L108.9-5.4z"/>
				<path fill="#2684FC" d="M108.9-0.8h-4.6v7h4.6V-0.8z"/>
				<path fill="#00AC47" d="M122.9-3.5l-3,2.4v7.6l3,2.4c0.3,0.2,0.7,0.2,1-0.1c0.1-0.1,0.1-0.3,0.1-0.4V-2.9c0-0.4-0.3-0.7-0.7-0.7
					C123.2-3.6,123-3.6,122.9-3.5z"/>
				<path fill="#00AC47" d="M115.4,2.7v3.5h-6.6v4.6h9.7c0.7,0,1.4-0.6,1.4-1.4c0,0,0,0,0,0V6.6L115.4,2.7z"/>
				<path fill="#FFBA00" d="M118.6-5.4h-9.7v4.6h6.6v3.5l4.5-3.8v-3C119.9-4.8,119.3-5.4,118.6-5.4L118.6-5.4z"/>
			</g>
		</g>
	</g>
</g>
</svg>
